Coordinates
version=1
nRows=16
nColumns=22
inDegrees=yes

Units are S.I. units (second, meters, Newtons, ...)
If the header above contains a line with 'inDegrees', this indicates whether rotational values are in degrees (yes) or radians (no).

endheader
time	pelvis_tilt	pelvis_list	pelvis_rotation	pelvis_tx	pelvis_ty	pelvis_tz	hip_flexion_r	hip_adduction_r	hip_rotation_r	knee_angle_r	ankle_angle_r	subtalar_angle_r	hip_flexion_l	hip_adduction_l	hip_rotation_l	knee_angle_l	ankle_angle_l	subtalar_angle_l	lumbar_extension	lumbar_bending	lumbar_rotation
      6.07000000	      0.54934835	     -1.86892857	    -71.29478529	      1.01062411	      1.01228181	      0.19972131	     10.68926914	      6.66747629	    -10.53252934	    -21.03342441	      7.64926385	    -10.40534915	     11.96618208	     -8.63060890	     -3.04049215	    -57.94767972	      3.04987720	     13.25232806	     -3.77856923	     -0.42298318	     -3.12481357
      6.08000000	      0.55485192	     -1.90195240	    -72.24114292	      1.00913739	      1.01281947	      0.20731518	      9.96316427	      7.00331550	     -9.94091459	    -20.54695301	      7.83220845	    -10.32787482	     12.77098567	     -8.56180698	     -2.93558450	    -57.09840630	      3.86640351	     12.83516536	     -3.80952627	     -0.54948377	     -2.64458383
      6.09000000	      0.54620991	     -1.92598811	    -73.20684450	      1.00758899	      1.01324968	      0.21478435	      9.25251880	      7.33137734	     -9.35971739	    -20.06437387	      8.01558330	    -10.24763586	     13.54534356	     -8.49801079	     -2.83469416	    -56.11158496	      4.59684018	     12.37056262	     -3.83424356	     -0.65827194	     -2.17769807
      6.10000000	      0.52178456	     -1.93868611	    -74.18326779	      1.00598702	      1.01357639	      0.22211036	      8.56317981	      7.65257025	     -8.76179228	    -19.59256175	      8.19055776	    -10.17128826	     14.29377569	     -8.43751981	     -2.73019758	    -54.99516455	      5.22458159	     11.85043003	     -3.85370518	     -0.75017354	     -1.73335168
      6.11000000	      0.47607984	     -1.93724998	    -75.17467339	      1.00435321	      1.01379698	      0.22931274	      7.90070093	      7.97219302	     -8.11575665	    -19.14302964	      8.35114224	    -10.11592503	     15.01791664	     -8.37929682	     -2.61594209	    -53.76096759	      5.76245273	     11.30600926	     -3.85808568	     -0.81620488	     -1.30357936
      6.12000000	      0.41165878	     -1.92906868	    -76.16770510	      1.00271172	      1.01393225	      0.23638235	      7.26238227	      8.28874362	     -7.39486647	    -18.73045282	      8.48774413	    -10.08225988	     15.70975611	     -8.31217321	     -2.46284886	    -52.41597966	      6.21372410	     10.72388591	     -3.86011796	     -0.85741603	     -0.89796905
      6.13000000	      0.32681499	     -1.90996331	    -77.16560942	      1.00108579	      1.01399059	      0.24336130	      6.64341244	      8.60427144	     -6.57813442	    -18.34286006	      8.59957603	    -10.07731810	     16.37206878	     -8.24014724	     -2.28327657	    -50.97294758	      6.56625426	     10.17825765	     -3.84701919	     -0.86671779	     -0.52481773
      6.14000000	      0.21313812	     -1.86455151	    -78.16843081	      0.99946906	      1.01393237	      0.25024694	      6.07461539	      8.92535920	     -5.66664536	    -18.00501120	      8.69019406	    -10.10203585	     17.02808382	     -8.16211411	     -2.04978454	    -49.45556746	      6.88373360	      9.82886724	     -3.80034179	     -0.84196726	     -0.16343356
      6.15000000	      0.10235916	     -1.83340888	    -79.16257385	      0.99791346	      1.01385560	      0.25706598	      5.49124213	      9.22444659	     -4.69292744	    -17.68912955	      8.76501696	    -10.12945646	     17.62394698	     -8.04312272	     -1.74522544	    -47.86375044	      7.06774718	      9.46610219	     -3.77536514	     -0.80295485	      0.15794596
      6.16000000	     -0.00391257	     -1.80750154	    -80.13962973	      0.99642574	      1.01372561	      0.26381492	      4.91325218	      9.49554019	     -3.71444059	    -17.40828506	      8.84988861	    -10.16101434	     18.17627427	     -7.87787903	     -1.35678135	    -46.21891689	      7.17618920	      9.18777114	     -3.76187310	     -0.75722308	      0.43762659
      6.17000000	     -0.10516072	     -1.77970111	    -81.11178827	      0.99498362	      1.01352069	      0.27050812	      4.35137799	      9.73806774	     -2.75346856	    -17.16599079	      8.94871969	    -10.19479148	     18.69576130	     -7.67259213	     -0.89362593	    -44.54326198	      7.22342530	      9.06067077	     -3.75168571	     -0.70664855	      0.69500058
      6.18000000	     -0.19630660	     -1.75504969	    -82.09084141	      0.99355069	      1.01324564	      0.27714883	      3.80231464	      9.95022234	     -1.81798765	    -16.96607413	      9.06698982	    -10.23108264	     19.17698426	     -7.43425854	     -0.37661891	    -42.85043976	      7.21745207	      9.08707268	     -3.75302425	     -0.66013050	      0.93984926
      6.19000000	     -0.27554342	     -1.73725764	    -83.09040886	      0.99208947	      1.01290060	      0.28373994	      3.26374920	     10.13317344	     -0.90112043	    -16.81133948	      9.20541308	    -10.27166794	     19.61832740	     -7.17524636	      0.16753806	    -41.15512737	      7.17206775	      9.26206203	     -3.76879352	     -0.62096623	      1.18475492
      6.20000000	     -0.34633165	     -1.72947800	    -84.11036683	      0.99056724	      1.01249102	      0.29028044	      2.73837400	     10.29409969	     -0.00074382	    -16.71048394	      9.36473468	    -10.31571900	     20.01955584	     -6.91345072	      0.70920816	    -39.46198918	      7.10950418	      9.57733508	     -3.80566607	     -0.59307796	      1.43959607
      6.21000000	     -0.41326936	     -1.74769022	    -85.12896346	      0.98901669	      1.01203748	      0.29679570	      2.20586776	     10.43827561	      0.86657232	    -16.65546057	      9.54628937	    -10.35487709	     20.36874408	     -6.65386222	      1.25286211	    -37.77694943	      7.08335150	     10.06725923	     -3.87706843	     -0.56739435	      1.66690091
      6.22000000	     -0.48672483	     -1.73687015	    -86.16950629	      0.98737197	      1.01146538	      0.30332162	      1.72175963	     10.57763784	      1.73302304	    -16.64352695	      9.74953965	    -10.39106521	     20.72741750	     -6.42570108	      1.72533934	    -36.10929400	      7.03647318	     10.53200973	     -3.90882309	     -0.54709429	      1.92064948
